/* XPM */
static char *c1f64cb837ab4aa29874072ccfbcf14fojIcKYdWlwner1T5[] = {
/* columns rows colors chars-per-pixel */
"64 64 208 2 ",
"   c #000E27",
".  c #000E29",
"X  c #01112B",
"o  c #021234",
"O  c #071831",
"+  c #0C1C35",
"@  c #04133B",
"#  c #14233C",
"$  c #1A283F",
"%  c #000C4A",
"&  c #061344",
"*  c #07144B",
"=  c #030D56",
"-  c #0A1653",
";  c #0A1558",
":  c #0C175C",
">  c #1B2A42",
",  c #182459",
"<  c #202E46",
"1  c #29364C",
"2  c #2D3A56",
"3  c #303D52",
"4  c #040B6D",
"5  c #0D1664",
"6  c #0A136A",
"7  c #111A62",
"8  c #121A6D",
"9  c #030579",
"0  c #0D1478",
"q  c #151B77",
"w  c #182068",
"e  c #18207A",
"r  c #2D3573",
"t  c #394559",
"y  c #414D63",
"u  c #495467",
"i  c #4E596B",
"p  c #525D6F",
"a  c #4B5579",
"s  c #4E5879",
"d  c #5A6475",
"f  c #636D7D",
"g  c #000086",
"h  c #0C0E85",
"j  c #00008C",
"k  c #0A0A8E",
"l  c #151B83",
"z  c #191D84",
"x  c #15198D",
"c  c #000094",
"v  c #0D0D93",
"b  c #00009C",
"n  c #0C0C9B",
"m  c #131395",
"M  c #171897",
"N  c #1B1E93",
"B  c #14159A",
"V  c #1B1B9D",
"C  c #1A2086",
"Z  c #1E2297",
"A  c #21278D",
"S  c #21249F",
"D  c #373C97",
"F  c #0000A4",
"G  c #0B0BA4",
"H  c #0000AC",
"J  c #0D0DAA",
"K  c #1515A5",
"L  c #1D1DA3",
"P  c #1514A9",
"I  c #1C1CAC",
"U  c #0101B1",
"Y  c #0C0CB4",
"T  c #0D0DB8",
"R  c #1212B6",
"E  c #1C1CB6",
"W  c #1414B9",
"Q  c #201FA6",
"!  c #2121A5",
"~  c #292DA7",
"^  c #2122AD",
"/  c #2C31A1",
"(  c #2525B4",
")  c #2728B5",
"_  c #2424BB",
"`  c #2A2ABC",
"'  c #3537BA",
"]  c #4B5194",
"[  c #596191",
"{  c #636B89",
"}  c #6A7383",
"|  c #6B7486",
" . c #707987",
".. c #757D8B",
"X. c #626A90",
"o. c #71789A",
"O. c #494DB3",
"+. c #6E71B5",
"@. c #2425C5",
"#. c #2C2CC3",
"$. c #2E2ECB",
"%. c #3434C4",
"&. c #3A3AC6",
"*. c #3C3CC8",
"=. c #2628D4",
"-. c #2E2ED3",
";. c #2F2FDC",
":. c #3030D9",
">. c #2E2EE7",
",. c #4141C7",
"<. c #4444CB",
"1. c #4A4ACE",
"2. c #4E4ED1",
"3. c #5353D2",
"4. c #5B5BD5",
"5. c #5353D8",
"6. c #5D5DD9",
"7. c #787BC6",
"8. c #6161D7",
"9. c #6464DA",
"0. c #6C6CDC",
"q. c #7B7DD3",
"w. c #7373DD",
"e. c #7A7ADD",
"r. c #5F5FE0",
"t. c #6767E1",
"y. c #6C6CE2",
"u. c #7474E3",
"i. c #7C7CE3",
"p. c #7171E9",
"a. c #7C7CEA",
"s. c #78818F",
"d. c #7E8695",
"f. c #7F85A9",
"g. c #7F82C3",
"h. c #7F80E3",
"j. c #868D9C",
"k. c #8B929D",
"l. c #959BA5",
"z. c #969BAB",
"x. c #8386BC",
"c. c #8C91B9",
"v. c #9BA1AA",
"b. c #A3A9AF",
"n. c #A5AAB3",
"m. c #ADB2B9",
"M. c #B2B6BE",
"N. c #888BC7",
"B. c #8E91C9",
"V. c #9699C8",
"C. c #8284D3",
"Z. c #8788D8",
"A. c #8F91D3",
"S. c #9799D4",
"D. c #9EA0D0",
"F. c #A4A6CB",
"G. c #B7BBC3",
"H. c #BABEC4",
"J. c #A4A6D0",
"K. c #B8BAD7",
"L. c #8383E4",
"P. c #8B8BE5",
"I. c #8383E9",
"U. c #8B8BE9",
"Y. c #8F90E7",
"T. c #9191E7",
"R. c #9799E2",
"E. c #9494E9",
"W. c #9B9BEB",
"Q. c #A2A2EE",
"!. c #AAABED",
"~. c #A5A5F1",
"^. c #ABABF2",
"/. c #B3B3F5",
"(. c #BABAF7",
"). c #B7B7F8",
"_. c #BCBCF9",
"`. c #BEC2C7",
"'. c #BFC1DB",
"]. c #C4C7CC",
"[. c #CBCED2",
"{. c #C3C5DB",
"}. c #CBCDDC",
"|. c #CFD1D8",
" X c #D5D7DB",
".X c #D2D4DC",
"XX c #DADCDE",
"oX c #CED0E1",
"OX c #D5D7E6",
"+X c #DCDDE4",
"@X c #C0C0F6",
"#X c #C4C4FB",
"$X c #CCCBFD",
"%X c #D3D3FE",
"&X c #D9D9FF",
"*X c #DEE0E1",
"=X c #E1E2E5",
"-X c #E5E6EA",
";X c #EBECED",
":X c #EFF0EF",
">X c #EEEEF0",
",X c #F3F3F3",
"<X c #F4F4F4",
"1X c #F6F6F6",
"2X c gray97",
"3X c #F8F8F7",
"4X c #F8F8F8",
"5X c #FBFBFA",
/* pixels */
"1X4X1X4X1X4X1X4X1X4X1X4X1X1X1X1X1X1X4X1X4X1X4X1X4X1X4X1X4X1X1X1X1X1X1X4X1X4X1X4X1X4X1X4X1X4X1X1X1X1X1X1X4X1X4X1X4X1X4X1X4X1X4X1X",
"1X1X4X,X4X,X4X,X4X,X4X1X4X1X1X1X1X4X1X4X,X4X,X4X,X4X,X4X1X4X1X1X1X1X4X1X4X,X4X,X4X,X4X,X4X1X4X1X1X1X1X4X1X4X,X4X,X4X,X4X,X4X1X4X",
"1X1X4X1X4X1X4X1X4X1X4X1X4X1X1X1X1X4X1X4X1X4X1X4X1X4X1X4X1X4X1X1X1X1X4X1X4X1X4X1X4X1X4X1X4X1X4X1X1X1X1X4X1X4X1X4X1X4X1X4X1X4X1X4X",
"1X4X1X4X,X4X,X4X,X4X1X4X1X4X1X1X4X1X4X1X4X,X4X,X4X,X4X1X4X1X1X1X1X4X1X4X1X4X,X4X,X4X,X4X1X4X1X1X1X1X4X1X4X,X4X,X4X,X4X,X4X1X4X1X",
"1X4X1X4X1X4X1X4X1X4X1X4X1X1X1X1X1X1X4X1X4X1X4X1X4X1X4X1X4X1X1X1X1X1X1X4X1X4X1X4X1X4X1X4X1X4X1X1X1X1X1X1X4X1X4X1X4X1X4X1X4X1X4X1X",
"1X1X4X,X4X,X4X,X4X,X4X1X4X1X1X1X1X4X1X4X,X4X,X4X,X4X,X4X1X4X1X1X1X1X4X1X4X,X4X,X4X,X4X,X4X1X4X1X1X1X1X4X1X4X,X4X,X4X,X4X,X4X1X4X",
"1X1X4X1X4X1X4X1X4X1X4X1X4X1X1X1X1X4X1X4X1X4X1X4X1X4X1X1X,X4X1X1X1X1X4X1X4X1X4X1X4X1X4X1X4X1X4X1X1X1X1X4X1X4X1X4X1X4X1X4X1X4X1X4X",
"1X4X1X4X,X4X,X4X,X4X1X4X1X4X1X1X4X1X4X1X4X,X4X,X4X;X{.S.V.+X4X1X1X4X1X4X,X4X,X4X,X4X,X4X1X4X1X1X1X1X4X1X4X,X4X,X4X,X4X,X4X1X4X1X",
"1X4X1X4X1X4X1X4X1X4X1X4X1X1X1X1X1X1X4X1X4X1X4X,XoXB.S.#Xc.v.4X1X1X1X1X4X1X4X1X4X1X4X1X4X1X4X1X1X1X1X1X1X4X1X4X1X4X1X4X1X4X1X4X1X",
"1X1X4X,X4X,X4X,X4X,X4X1X4X1X1X1X1X4X1X4X,X4X+XJ.A.@X&X&Xc.k.4X1X1X1X4X1X4X,X4X,X4X,X4X,X4X1X4X1X1X1X1X4X1X4X,X4X,X4X,X4X,X4X1X4X",
"1X1X4X1X4X1X4X1X4X1X4X1X4X1X1X1X1X4X1X4X,X{.N.!.%X&X&X&Xf.j.4X1X1X1X4X1X4X1X4X1X4X1X4X1X4X1X4X1X1X1X1X4X1X4X1X4X1X4X1X4X1X4X1X4X",
"1X4X1X4X,X4X,X4X,X4X1X4X1X4X1X1X4X1X4X=XV.S.#X&X%X%X$X%Xo.k.4X1X1X4X1X4X,X4X,X4X,X4X,X4X1X4X1X1X1X1X4X1X4X,X4X,X4X,X4X,X4X1X4X1X",
"1X4X1X4X1X4X1X4X1X4X1X4X1X1X1X1X4X1X}.N.!.%X%X$X$X$X$X$XX.v.4X1X1X1X1X4X1X4X1X4X1X4X1X4X1X4X1X1X1X1X1X1X4X1X4X1X4X1X4X1X4X1X4X1X",
"1X1X4X,X4X,X4X,X4X,X4X1X4X1X1X4X;XJ.C._.$X$X$X#X#X#X#X#X[ M.4X1X1X1X4X1X4X,X4X,X4X,X4X,X4X1X4X1X1X1X1X4X1X4X,X4X,X4X1X4X1X4X1X4X",
"1X1X4X1X4X1X4X1X4X1X4X1X4X1X4X+XN.R.#X$X#X#X#X#X#X_._.(.s `.4X1X1X1X4X1X4X1X4X1X4X1X4X1X4X1X4X1X1X1X1X4X1X4X1X4X:X>X+XOX{.{.oX1X",
"1X4X1X4X,X4X,X4X,X4X1X4X1X1X{.g.!.#X#X#X#X_._.).).).)./.a ].4X1X1X4X1X4X,X4X,X4X,X4X,X4X1X4X1X4X3X1X,X-X+X{.K.S.A.C.q.w.w.0.O.H.",
"1X4X1X4X1X4X1X4X1X4X1X4X;XF.C.).#X_._._.).(.).).)././.!.a [.4X1X1X1X1X4X1X4X1X4X1X4X1X4X,X>X+X}.K.J.A.C.q.e.i.a.a.a.a.a.a.a.' d.",
"1X1X4X,X4X,X4X1X4X1X4X=XN.Z.)._.(.(.).)./././.^.^.^.^.Q.a  X3X1X3X1X4X1X4X1X3X;X-X}.'.J.S.C.q.e.i.a.a.I.I.a.a.a.a.a.u.u.u.p./  .",
"1X1X4X1X4X1X4X1X4X1X.Xf.R.).).).)././.^.^.^.^.^.~.~.~.W.a XX1X,X;X-X+X}.K.J.S.N.C.q.e.h.L.I.I.I.I.a.a.a.a.a.u.u.u.u.u.y.y.t.A s.",
"1X4X1X4X,X4X,X4X,XK.7.Q.)././.^.^.^.^.^.~.~.~.~.Q.W.W.W.[ V.D.S.A.Z.C.C.Z.L.L.I.I.I.I.I.L.a.a.a.a.a.u.u.u.u.u.y.y.t.t.t.t.r.e k.",
"1X4X1X4X1X4X1X1XF.7.^./.^.^.^.^.^.~.~.Q.Q.Q.W.W.W.W.E.E.Y.P.P.U.U.U.U.U.U.L.L.L.L.a.a.a.a.i.u.u.u.u.u.y.y.y.t.0.t.t.9.9.9.5.8 n.",
"1X1X4X,X4X1X>Xc.q.^.^.^.^.Q.Q.Q.Q.Q.W.W.W.W.W.E.E.T.T.T.U.U.P.P.L.L.L.L.L.a.a.i.i.i.u.u.u.u.w.0.0.0.0.0.9.9.9.9.9.6.6.6.6.<., `.",
"1X1X4X1X4X+Xx.C.!.Q.Q.Q.Q.Q.W.W.W.W.W.E.E.T.T.T.P.P.P.P.L.L.L.L.L.i.i.i.i.i.u.u.u.w.w.0.0.0.0.0.9.9.9.8.8.6.6.6.6.4.5.5.5.' , |.",
"1X4X,X4X.X+.Z.Q.Q.Q.W.W.W.W.W.E.E.T.T.T.P.P.P.P.P.L.L.L.L.L.i.i.i.i.i.w.w.w.w.w.0.0.0.0.9.9.9.8.8.6.4.4.4.4.5.5.5.3.3.2.2.~ 2 +X",
"1X4X1X.X+.Z.Q.W.W.W.W.E.E.E.T.T.P.P.P.P.P.L.L.L.L.L.i.i.i.i.e.w.w.w.w.w.0.0.0.0.0.9.9.8.8.8.4.4.4.4.4.3.3.3.3.3.2.1.1.1.2.Z y ;X",
"1X1X.X+.Z.W.W.E.E.E.T.T.P.P.P.P.P.L.L.L.L.L.i.i.i.i.e.w.w.w.w.w.0.0.0.0.0.9.9.8.8.8.4.4.4.4.4.5.3.3.3.3.2.1.1.1.1.<.<.,.<.x d 4X",
"4X}.D ) 4.e.P.T.T.P.P.P.P.L.L.L.L.L.i.i.i.e.e.w.w.w.w.w.0.0.0.0.0.9.9.8.8.8.4.4.4.4.4.3.3.3.3.3.1.1.1.1.1.<.<.,.,.,.*.*.*.0  .4X",
" X] F H H Y _ ,.4.w.L.L.L.L.L.e.i.e.e.w.w.w.w.w.0.0.0.0.0.9.9.9.8.8.4.4.4.4.4.3.3.3.3.3.2.1.1.1.1.<.<.,.,.,.*.*.&.&.&.%.%.0 k.4X",
"] b F F H H H H U T _ &.2.8.0.w.w.w.w.w.w.0.0.0.0.9.9.9.8.8.4.4.4.4.4.3.3.3.3.3.2.2.1.1.1.<.<.<.,.,.*.*.&.&.&.%.%.%.%.` ` 6 v.4X",
"4 F F F F H H H H U U U U Y W _ %.1.3.4.9.9.9.9.9.8.8.4.4.4.4.4.3.3.3.3.2.2.2.1.1.<.<.<.<.,.*.*.*.*.&.%.%.%.%.%.#.` ` ` _ 6 b.4X",
"@ j F F F F H H H H U U U U U U U U Y T E @.%.*.<.1.3.3.3.3.3.3.3.2.1.1.1.1.<.<.<.,.*.*.*.*.*.%.%.%.%.%.#.#.#.` ` _ _ ) E 5 m.4X",
"  % c F F F F H H H H H H H H U U U U U U U U U U Y T W E _ @.#.%.%.&.&.*.*.*.*.*.*.&.%.%.%.%.%.%.#.#.#.#._ _ _ _ _ E E I 5 H.4X",
"1 . = c F F F F F H H H H H H H H H H H H H H U U U U H U U U U U U U U Y Y T T W W W W W W W W W W W R R R R Y Y J J G F 6 H.4X",
"H.< . = n G F F F F F F F H H H H H H H H H H H H H H H H H H H H H H H H H H H U H U H H H H H H H H H H H H H H F F F b 4 m.4X",
"4Xn.# . = n J J G F F F F F F F F F F F F H H H H H H H H H H H H H H H H H H H H H H H H H H H H H H H H H H F F F F b b 4 n.4X",
"1X4Xv.# . = B P P P J G F b b b b F F F F F F F F F F F F F F F F F F F F F F F F F F F H F F F F F F F F F F F F b b b b 9 v.4X",
"1X4X,Xb.# . * m P P P P P J G b b b b b b b b b b b b b F F F F F F F F F F F F F F F F F F F F F F F F b b b b b b c c c 9 j.4X",
"1X1X4X,Xn.> . & x I I I I I P P K n b c c c c c b b b b b b b b b b b b b b b b b b b b b b b b b b b b b b b c c c c c c 9 { 4X",
"1X1X4X1X4Xm.< . @ l I I I I I I I I I K G n c c c c c c c c c c c c c c c c c c c c c c c c c c c c c c c c c c c c j j j g a ,X",
"1X4X1X4X,X4XG.1 . o q ^ ^ ^ ^ I I I I I I I K K n n c c j j j j j j j j c c c c j c c c c c c j j j j j j j j j j j j j j g r *X",
"1X4X1X4X1X4X1X[.t . o 8 ^ ( ( ( ( ^ ^ ^ ^ I I I I I K K B n v k k j j j j j j j j j j j j j j j j j j j j j j g j j g g g g w [.",
"1X1X4X,X4X,X4X1XXXi X X 7 ^ ) ) ) ( ( ( ( ^ ^ ^ ^ ^ ! I I L L L K K B B v v k k j j j g g g g g g g g g g g g g g g g g g g 6 H.",
"1X1X4X1X4X1X4X1X4X=Xf X . - ! ` ` ) ) ) ) ) ( ( ( ( ^ ^ ! 5 - : 8 l N V L L L L L V B B B m m v v v v v k k k k k k k k k k 0 z.",
"1X4X1X4X,X4X,X4X,X4X;Xd.+   & Z ` ` ` ` ` ` ) ) ) ) ) ( ^ -   X X X o & ; 8 l N V L L L L L L V V V V V B B m m m m m m m m h { ",
"1X4X1X4X1X4X1X4X1X4X1X1Xv.$   @ C ` #.#.` ` ` ` ` ` ` ` ) 7 + O X .     . X X o * : q x V L Q L L L L V V V V V V V B m m m m r ",
"1X1X4X,X4X,X4X,X4X,X4X1X4XG.1   o 8 ` #.#.#.#.#.#.` ` ` ` e v.M.l.| u 1 + X .     X X o & ; 8 z V ! ! ! L L L L V V V V V V M w ",
"1X1X4X1X4X1X4X1X4X1X4X1X4X4X[.u X X : ) $.$.$.#.#.#.#.#.#.A m.4X4X1X,XXX].l.} y > O .     X X o @ - 8 z N ! ! ! ! ! L V V V V 8 ",
"1X4X1X4X,X4X,X4X,X4X1X4X1X4X4X=X} X   * ! -.$.$.$.$.$.$.$.S z.4X1X4X1X4X1X4X,X,X|.M.d.p 1 + X     . X X @ * 7 q N S ! ! ! ! ! z ",
"1X4X1X4X1X4X1X4X1X4X1X4X1X1X1X4X,Xk.#   o C $.:.-.-.-.$.-.) o.1X1X1X1X4X1X4X1X4X1X4X1X1X+XH.k.d 3 # X       X X o & : 8 z Z Z q ",
"1X1X4X,X4X,X4X,X4X,X4X1X4X1X1X1X1X1Xm.3   X 8 #.;.;.-.-.-.$.] ;X1X1X4X1X4X,X4X,X4X,X4X1X4X1X4X,X=X].l.} t $ X .     . X X o @ o ",
"1X1X4X1X4X1X4X1X4X1X4X1X4X1X1X1X1X4X1X.Xi X . * ^ ;.;.;.;.;.D XX4X1X4X1X4X1X4X1X4X1X4X1X4X1X4X1X4X4X4X4X-X|.n...u < + X         ",
"1X4X1X4X,X4X,X4X,X4X1X4X1X4X1X1X4X1X4X1X;X..+   o l =.>.>.>./ H.4X4X1X4X,X4X,X4X,X4X,X4X1X4X1X1X1X1X4X1X4X1X4X1X1X X`.l. .i t y ",
"1X4X1X4X1X4X1X4X1X4X1X4X1X1X1X1X1X1X4X1X4X,Xn.1 . X : _ >.>._ z.4X1X1X4X1X4X1X4X1X4X1X4X1X4X1X1X1X1X1X1X4X1X4X1X4X1X4X1X4X,X;X;X",
"1X1X4X,X4X,X4X,X4X,X4X1X4X1X1X1X1X4X1X4X,X4X1X.Xp X   o l =.=.o.3X1X4X1X4X,X4X,X4X,X4X,X4X1X4X1X1X1X1X4X1X4X,X4X,X4X,X4X,X4X1X4X",
"1X1X4X1X4X1X4X1X4X1X4X1X4X1X1X1X1X4X1X4X1X4X1X4X;Xk.>   X & 6 s ,X1X4X1X4X1X4X1X4X1X4X1X4X1X4X1X1X1X1X4X1X4X1X4X1X4X1X4X1X4X1X4X",
"1X4X1X4X,X4X,X4X,X4X1X4X1X4X1X1X4X1X4X1X4X,X4X,X4X,X].i X     t ;X4X1X4X,X4X,X4X,X4X,X4X1X4X1X1X1X1X4X1X4X,X4X,X4X,X4X,X4X1X4X1X",
"1X4X1X4X1X4X1X4X1X4X1X4X1X1X1X1X1X1X4X1X4X1X4X1X4X1X4X;Xz.t O } 1X4X1X4X1X4X1X4X1X4X1X4X1X4X1X1X1X1X1X1X4X1X4X1X4X1X4X1X4X1X4X1X",
"1X1X4X,X4X,X4X,X4X,X4X1X4X1X1X1X1X4X1X4X,X4X,X4X,X4X,X4X1X=XG.*X4X1X4X1X4X,X4X,X4X,X4X,X4X1X4X1X1X1X1X4X1X4X,X4X,X4X,X4X,X4X1X4X",
"1X1X4X1X4X1X4X1X4X1X4X1X4X1X1X1X1X4X1X4X1X4X1X4X1X4X1X4X1X4X4X4X1X1X4X1X4X1X4X1X4X1X4X1X4X1X4X1X1X1X1X4X1X4X1X4X1X4X1X4X1X4X1X4X",
"1X4X1X4X,X4X,X4X,X4X1X4X1X4X1X1X4X1X4X1X4X,X4X,X4X,X4X1X4X1X1X1X1X4X1X4X,X4X,X4X,X4X,X4X1X4X1X1X1X1X4X1X4X,X4X,X4X,X4X,X4X1X4X1X",
"1X4X1X4X1X4X1X4X1X4X1X4X1X1X1X1X1X1X4X1X4X1X4X1X4X1X4X1X4X1X1X1X1X1X1X4X1X4X1X4X1X4X1X4X1X4X1X1X1X1X1X1X4X1X4X1X4X1X4X1X4X1X4X1X",
"1X1X4X,X4X,X4X,X4X,X4X1X4X1X1X1X1X4X1X4X,X4X,X4X,X4X,X4X1X4X1X1X1X1X4X1X4X,X4X,X4X,X4X,X4X1X4X1X1X1X1X4X1X4X,X4X,X4X,X4X,X4X1X4X",
"1X1X4X1X4X1X4X1X4X1X4X1X4X1X1X1X1X4X1X4X1X4X1X4X1X4X1X4X1X4X1X1X1X1X4X1X4X1X4X1X4X1X4X1X4X1X4X1X1X1X1X4X1X4X1X4X1X4X1X4X1X4X1X4X",
"1X4X1X4X,X4X,X4X,X4X1X4X1X1X1X1X4X1X4X1X4X,X4X,X4X,X4X1X4X1X1X1X1X4X1X4X1X4X,X4X,X4X,X4X1X4X1X1X1X1X4X1X4X1X4X,X4X,X4X,X4X1X4X1X"
};
