/* XPM */
static char *e885f235287d4941c24749df217314bdIjdOCg1MLAS9z4Vo[] = {
/* columns rows colors chars-per-pixel */
"64 64 248 2 ",
"   c #350002",
".  c #3C0102",
"X  c #3D030A",
"o  c #3B0908",
"O  c #3E0113",
"+  c #3B0814",
"@  c #3D0525",
"#  c #440202",
"$  c #4C0302",
"%  c #450903",
"&  c #4D0A02",
"*  c #44030B",
"=  c #4B040C",
"-  c #440A0C",
";  c #4C0B0C",
":  c #530403",
">  c #590503",
",  c #530B02",
"<  c #5A0C03",
"1  c #53040C",
"2  c #59070C",
"3  c #520C0C",
"4  c #5C0C0B",
"5  c #4C1202",
"6  c #4D120C",
"7  c #471500",
"8  c #541203",
"9  c #5B1303",
"0  c #5C1902",
"q  c #54120B",
"w  c #5A130B",
"e  c #5C1A0E",
"r  c #52180A",
"t  c #440414",
"y  c #4D0313",
"u  c #440B13",
"i  c #4B0B13",
"p  c #43031A",
"a  c #4C0319",
"s  c #460C1B",
"d  c #4B0D1B",
"f  c #530413",
"g  c #530B14",
"h  c #5B0C13",
"j  c #51041B",
"k  c #540A1B",
"l  c #5B0D19",
"z  c #5A0616",
"x  c #461217",
"c  c #471219",
"v  c #4B141B",
"b  c #4C1113",
"n  c #531414",
"m  c #5B1313",
"M  c #5C1A13",
"N  c #5B141A",
"B  c #5B1A1D",
"V  c #551817",
"C  c #620C03",
"Z  c #630D0C",
"A  c #680B01",
"S  c #631403",
"D  c #661A02",
"F  c #63140C",
"G  c #641C0B",
"H  c #6C1808",
"J  c #721505",
"K  c #741D0C",
"L  c #771C05",
"P  c #620C18",
"I  c #641514",
"U  c #691714",
"Y  c #631D14",
"T  c #6B1C14",
"R  c #65161C",
"E  c #621B1B",
"W  c #6A1B1B",
"Q  c #68161A",
"!  c #751C14",
"~  c #582319",
"^  c #69250A",
"/  c #7C2303",
"(  c #7D2A04",
")  c #7C240C",
"_  c #752A0C",
"`  c #7B2C0B",
"'  c #742508",
"]  c #7C330E",
"[  c #763206",
"{  c #652314",
"}  c #6D2313",
"|  c #6C221A",
" . c #6A2819",
".. c #742314",
"X. c #7B2514",
"o. c #7D2B14",
"O. c #73231C",
"+. c #7A251B",
"@. c #742B1B",
"#. c #7C2B1B",
"$. c #742B14",
"%. c #7B3413",
"&. c #7D321D",
"*. c #783619",
"=. c #470625",
"-. c #530624",
";. c #491725",
":. c #5A1524",
">. c #621222",
",. c #6A1B26",
"<. c #630827",
"1. c #682627",
"2. c #732522",
"3. c #7B2522",
"4. c #752C23",
"5. c #7C2C22",
"6. c #782A2A",
"7. c #7C3323",
"8. c #7C342A",
"9. c #793727",
"0. c #732830",
"q. c #7D3936",
"w. c #7D411D",
"e. c #7E4334",
"r. c #79334B",
"t. c #881D07",
"y. c #842504",
"u. c #8C2603",
"i. c #842B03",
"p. c #8B2D04",
"a. c #83250B",
"s. c #8A260A",
"d. c #852C0C",
"f. c #8B2D0C",
"g. c #922C05",
"h. c #9A2C01",
"j. c #922D0C",
"k. c #9A2C0C",
"l. c #843203",
"z. c #8B3304",
"x. c #8B3A04",
"c. c #85310C",
"v. c #8C330C",
"b. c #8D390C",
"n. c #863A08",
"m. c #923304",
"M. c #92340C",
"N. c #99330B",
"B. c #923A0C",
"V. c #993A0D",
"C. c #973A05",
"Z. c #822514",
"A. c #8B2414",
"S. c #842C13",
"D. c #8C2D13",
"F. c #84261B",
"G. c #8E2619",
"H. c #842D1B",
"J. c #8C2D1B",
"K. c #922D13",
"L. c #922D1C",
"P. c #962917",
"I. c #853214",
"U. c #8C3313",
"Y. c #843A14",
"T. c #8C3A14",
"R. c #85331B",
"E. c #8C331B",
"W. c #86391C",
"Q. c #8C3B1B",
"!. c #923313",
"~. c #993514",
"^. c #933A13",
"/. c #993D14",
"(. c #93331B",
"). c #9A351C",
"_. c #943B1C",
"`. c #9B3D1B",
"'. c #832E22",
"]. c #8B2D22",
"[. c #882C27",
"{. c #932C22",
"}. c #902D28",
"|. c #833323",
" X c #8C3422",
".X c #843A23",
"XX c #8B3B24",
"oX c #85342A",
"OX c #8A352A",
"+X c #843B2A",
"@X c #8B3C2C",
"#X c #933322",
"$X c #9D3323",
"%X c #933B23",
"&X c #9A3B23",
"*X c #93352B",
"=X c #963B2A",
"-X c #812F32",
";X c #813431",
":X c #8C3936",
">X c #923C34",
",X c #A33126",
"<X c #88430B",
"1X c #94430C",
"2X c #844314",
"3X c #8B4315",
"4X c #8B4C13",
"5X c #85431A",
"6X c #8B421C",
"7X c #87491B",
"8X c #944314",
"9X c #9B4213",
"0X c #964D12",
"qX c #93441C",
"wX c #9A421C",
"eX c #944A1B",
"rX c #994D1B",
"tX c #994E17",
"yX c #96511D",
"uX c #A14716",
"iX c #834221",
"pX c #8D4422",
"aX c #8D4B22",
"sX c #84432B",
"dX c #8D442B",
"fX c #8A4C29",
"gX c #934423",
"hX c #944B23",
"jX c #9A4A24",
"kX c #93452C",
"lX c #9B442A",
"zX c #9A4B2C",
"xX c #984727",
"cX c #98532B",
"vX c #8C4334",
"bX c #83403A",
"nX c #894C35",
"mX c #944B31",
"MX c #9A4D34",
"NX c #984533",
"BX c #915534",
"VX c #895025",
"CX c #A34827",
"ZX c #A15035",
"AX c #863741",
"SX c #994741",
"DX c #8F4347",
"FX c #A34E49",
/* pixels */
"/./././././././.1X1X8X9X^.S.Y - ' U.wXwX/.9X9X/.1X1XjXQ.D L Q._.B.8XgX0 % # XX9XwX`././.uX9XV.uX' > W = y * - 6 wX^.^.9X9X/.9XuX",
"U.U.U.U.v.v.U.v.c.c.U.!.M.U.$.q pXgXQ.c.d.f.z.z.z.l.U.I.) H._.U.^.b.Q.7.n ; #.!.U.c.c.c.T.U.d.!.E.K C > 6.m # e.U.U.T.T.T.T.b.b.",
"I.I.I.I.I.I.I.I.J.H.J.D.j.(.&.8 Q.U.c.c.T.!.T.U.M.f.D.E.E.(.E.f.f.f.) @X; h X.y.c.I.d.d.U.S.S.E.zXE.J K @XT . :XI.U.U.I.U.U.U.f.",
"E.E.E.E.E.E.E.E.(.J.E.!.f.(.H., qXb.v.!.~.!.D.D.D.!.!.(.(.D.f.!.K.(.U.oX$ W E.p.c.T.U.U.U.U.E.(.a.L / ^.U.|.8 4.Q.U.U.f.f.D.U.!.",
"f.f.f.f.f.f.f.f.m.v.U.D.f.E.+.& `.M.p.g.j.f.D.(.D.!.!.M.M.p.v.^.M.!.^.o.& w E.m.f.^.f.U.!.f.!.K.!.~./.wX( R.$ w !.f.f.!.!.f.f.!.",
"!.M.K.!.!.!.M.!.z.b.I.S.S.+.I = U.D.U.!.!.D.J.J.E.E.U.c.v.!.U.d.U.v.T.$.w # X.M.y.(.f.!.(.f.(.K.a._.f.U.H..Xw bX!.!.!._._.!.D.!.",
"E.E.E.E.E.E.E.E.a.H...T O.U = i 2.5.|.R.#.$.F > #.o.R.E.S. XH.S S.Q.W. .B - O.#XH '.X.E.E.S._.U.E.E.H.X.F | $ 0.H. XE.H.o.W.|.$.",
"o.o.o.o.o.o.o.o.C I 3 1 I 2 # d ; 3 3 , 3 w ; * > F #.|.X.'.3.: S R...; O t R 3.> O.U O.#...R.o.I.L '.O.# h ; . ! 5.O.< ,  . .e ",
"< 4 w 9 C F m O t # e 9 M . M & # n n q q , , w S & X X . Y F , 3 w w q 3 8 q 8 8 9 8 & 8 e - +   6 M 8 , 9 9 , e h : w i @ =.w ",
"jXhXhXqX^.qX&.{ ; | NXkX|.G @XMX' Y.pXgXzXzXjXjXlX|.{ % M .XkXZXjXjXjXjXjXjXjXgXgXkXmXkXgX XY * { 7.dXkXzXZXMXmX3XzXzXaX^ % m %.",
"l.l.n.x.C.1XW.$.G R.f.v.gX_._.!.z.B.b.z.z.p.i.p.~.E.7.9 .X_.!.!.b.B.B.b.B.B.b.z.M.T._./.B.~.H.q I.T.U.c.v.v.c.d.l.T.8X1X[ w $.<X",
"D.D.U.U.j.D.+.m 9 gXv.p.v.!.u.j.).).K.f.K.K.K.~.g.U.R., gXU.u.u.K.!.(.!.!.(.!.D.N.p.p.p.y.f.R.< jX^.v.m.N.N.!.(.U.D.a.c.&.R 2.d.",
"&X(.#X(.(.L.3.h 5 MX_.M.f.U.f.`.a.S.A.D.(.(.D.J.j.E.7.& kXT.!.~.S.E.(.D.D.J.J.J.!.!.U.^.M.!.|., T.c.i.v.!.!.U.D.(.L.).E.'.P 3.U.",
"u.y.i.p.M.!.#.e e dXd.y.E.%XS.f.M.!.v.v.!.c.d.c.s.R.7.8 mXQ.d.S.z.b.!.b.c.T.T.T.d.E.S.E.!.E.+X3 gXQ.U.U.!.U.D.S.i.f.!.z.I.4 #.z.",
"V.M.T.M.M.U..., w @X(.K.E.U.S.U.M.M.f.d.c.f.c.^.).E.&.& W.U.D.!.z.v.v.z.v.T.c.i.(.lXS.D.f.D.'.& R.E.D.f.f.!.(._._.!.(.l.I.4 X.i.",
"(.D.H.D.S.Z.U * , H.j.j.!.E.U.f.J.(.L.(.J.Z.K ! g.S.$., I.T.v.!.!.K.D.L.#X#XA.L y.&Xa.f.~.!.H.> X.D.(.!.j.j.f.f.J.F.#Xd.5.g 6.U.",
"&.#.@.| E N g g p m @.7.|._ F <.*.%.*.@.w % = d l k a p d 1.9.*.oX+.) F.H.'.-X2 9 @.4.e m 1.B * $ 5.%.%.9.9.*.D @. .M ; - i n E ",
"C < < 4 2 g g g 3 8 0 # # $ < 4 1 = f l g y j k 9 < , $ 3 q , # u   ; q w & 6 % > 4 4 , > m g = g w < # * O g : , 3 3 ; i g h h ",
"8X8X8X8XeXeXeXeXcX5X9.k y  .aXgXI.` Y.eX0X0X0X0XqXgXgXgXkXkX|...o ~ e.iXaX5X7XVX8X8X8XeXrXeXeXhXpXY.pX{ * t 1.+X<X3XeXhXjXhXeX8X",
"(.E.!.T.T.T.T.b.z.l.W.0.g .XY.c.E.D.b./.1X1Xx.x.z.z.z.z.b.Q.R.X.% @X%XM.m.m.m.p.(.U.!.wXwX^.T.T.x.l.8XR.# m $.3XT.Q.Q.Q.E.U.v.v.",
"S.S.S.f.f.f.z.f.K.p.d.oX< xXc.J.].F.J.(.D.J.J.J.D.D.p.i.i.f.U.D.4 FXZ.D.t.P.).A.S.D.D.U.!.v.d.d.!.s.D.>Xh DXXXb.f.D.D.S.f.f.U.T.",
"v.M.M.M.m.m.m.z.,Xj.i.#., jXf.$Xb.z.M.M.p.p.(.!.J.(.(.!.p.f.U.U.# 9.S T.^.(.&X%XM.M.z.z.z.m.M.z.(.!.s. X: oXU.z.b.M.M.M.m.M.M.B.",
"L.L.L.J.J.J.J.H.A.p.Q.@.Y zXi.A.E.f.U.U.f.f.K.D.d.f.D.D.D.D.U.U.% ^ ' l.B.z.i.(  XJ.J.S.J.J.].].f.B.x.T.$ 9 ( m.E.E.(.J.J.H.F.H.",
"p.p.p.v.v.!.!.!.!.z..X* ; pXb.~.E.J.E.E.f.!.!.D.z.z.f.E.(.E.E.R.j z :XA A.(.L.#Xb.i.l.b.M.z.f.D.K X.H.7.N y 6.}.v.b.v.z.p.v.T.U.",
"I.I.U.I.I.I.I.I.g.!.+.4 4 S.~.C.P.(.U.E.L.$XA.(.`.a.L o..X&.&..X- % S o.J J.XX%.L.L.G.G.L.).P.j.(.H.C T 4 6.+.OX].D.(.].(.p.!.}.",
"s.j.j.j.K.K.K.K.|.4.:.t t B 2.&.J.I.%.] R.H.S.I.K @X'.> 4 ;X8., =.t = AX1 2 : 6.^ ^ 0 8 0 ^ ] ] 8.4.V v X u . - ` l.] R.I.x.l.o.",
"x x c c x c c c w ; - u u * = 3 f * - * k = f = w : $ $ 1 = $ $ y i t s t y : w =.s p O p d d i 8 8 & - - - - ; y n t =.=.N 3 j ",
"uXuXuXuX9X9X9X9XCXxXkXkXXX..C A w & % w w < F w F < 4 U I F I U gXMX& . 5 BXpXgXeXrXyXrXrXtX1Xx.^._.jXgXzXgXzXlXhX7X^ # & [ 3XzX",
"T.T.3XT.Y.Y.Y.Y.m.m.m.m.M.!.!.K.R.+.F @XS.v.U.E.H.E. XS.S.E. XS.p.c.&.% BX[ x.p.~.!.N.M.M.N.N.M.m.m./.p.N.i.p.p.U.Q.oX>.AXXX_.J.",
"D.U.E.D.D.D.D.J.T.T.v.i.( c.I.o.#X3.4 SXS.K.D.J.U.f.v.!.M.f.f.!.V._.5., pX( p.).!.!.v.f.z.T.^.T.c.c._.I._.U._._.g.z.d.: OXl.C.j.",
"K.K.K.P.K.K.P.L.` I.E.E.E._.Q.T.v.' < zXx.x.C.v.s.!.!.f.f.!.(.f.v.H.:X$ ZXc._.A.U.U.T.T.v.U.I.d.I.I.E.S.I.S.I.I.p.B.T.D kXx.C.j.",
"v.v.v.v.c.f.c.c.!.!.P.P.K.j.p.z.+.m = :XW.( Q.'.#XJ.D.!.!.D.D.E.v.E.5.< qXl.c.J.K.P.!.j.j.!.(.!.M.M.j.j.j.M.!.!.J._.$.w 9.Y.c.*X",
"L.L.#X#XL.D.D.K.I.!.f.!.E.OXX.XXA.Z 2 >Xv.p.).A.'.J j.!.U.H.lXS.g.x.( z >./ C.h.R.R.I.I.I.R.R.E.!.T.U.!.U.D.).L.g.(.'.h 2 ..U.g.",
"v.z.z.i.i.i.b.B.f.~.k.j.(.E.L / @X4.3 4.Q.c.J.! J s.N.p.^.i./ !.*XR.} a ,.W.^./ !.!.j.j.j.M.!.!.K.f.M.M.N.p.j.u.c.I.} 8 8 } T.B.",
"T.I.] Y.Q.Q.Q.I. X XH.Z. X XX.D % q . n @.F > = f Q OXH.@X5.T '.l w ; X :.4.+XoXD.S.S.d.d.D.D.D.Z Z 3.'.>X.X@XoXI m i X u B 2.6.",
"f f f a y y y y # - - % % # & r = d p O k y -.=.;.  q &   . . % $ 3 q # & # # ; j j k k k k k k n % ; . %   . u 2 = = ; ; ; g h ",
"3XeXhX2X[ [ 5XcXq.V   ~ vXmXnX9.0X<X4XyXyX8XQ.8 o 5 *.hXaXcXaX7XgXgXgXgX.XY . i 2X2X4X4X4X4X4X2X2X2XcXhXfX{ % % Q.6XaXhX7X%.` o.",
"c.I.] ` _ ` I.Q.D.^ 8 XXB.p.M.qXCXU.Q.T.S.E.=X..w NX(.u.j.f.f.CXx.b.^.B.^.+.h bX^.^./.9X9X/./.^.V.m.M.f.J.X.Z -XT.^.qXrX8Xv.v.T.",
"!.f.i.v.^.wXb.i.~.S.9 zXC.h.h.f.s.y.^.`.K.(.E.I.$ SX{.P.K.G.A.).z.!.!.m.z.5.m nXj.g.m.m.m.N.M.j.L.K.K.$X{.}.Z :Xd.S.D.E.E.E.E.E.",
"K.(.(.!.D.f.j.!.S.4.6 SXd.N.!.|.).(.i.p.j.).y.c.7 fXl.B.i.v.qX( c.}.L.g.^.>X# 7 E.R.I.I.I.U.E.E.U.U.c.^.l.Y.8 7Xx.z.z.f.D.c.z.l.",
"g.K.u.j.j.~.p.m.(.#.m vX!.N.S.7.E.S.E.(.J.E. X'., kXf.M.c.S.E.D.I.E.E.D.S.#.h r.).K.f.!.M.M.N.g.I.E.U.(.S. X8 +X!.c.D.E.%XE.U.U.",
"E._.I.E.U.Q.c.U.K.H.: @XM.h./.W.M.z.m.m.p.p.M.v.& _ CXy.^.d.f.~.B.z.m.V.V.v.$ 3 |.|.XXE.S.S.D.E.T.!.j.).D.(.S @XM.!.(.f.y.y.p.M.",
"( I.d.c.d.U.d.U.i.c., gX(.t.A.C  XH.J.L.L.$X$XJ.q @.(.f.f.!.p.N.L.A.A.t.A.*XI y $ S ) E.!.E.E. Xj.p.u.~.D.F.< 5.i.f.v.!.!.!.!.M.",
"M.~.N.M.j.j.u.j.XX7., |.E.(.NXOX9 H R.E.a.) S.D.b 0.< H.'. X(.p.E.) E.&XE.&.w * NX&X~.g.g.u.f.(.(.D.D.%X'.O.$ M E.H.J.(.(.J.S.Z.",
"S.E.E.H.E.J.E.%Xr.:.t B T &.I.%.1.w & G +XvX@., + i $ h 0.I OXH.4.$ F +X4.5 % s U +.H.E.%X(.F.].+.| U 2.E i   - O.O.+.+.! F W ;X",
", q 3 % ; * ; i & . % 3 g N g k v - * = $ ; ; # - # 3 $ *   # F N . # = ; % d O ; V i * - % % I 3 $ $ = * * ; n > > > S < $ $ g ",
"+X+X9.{  .w q 6 yXeX5X$.3 * a -.cXpX6X6X3XeXhX7XsXpXXXvXm V w +X5XhXcX6XeXqXpXS : m u + ;.n $ > Z Z Z F F T &..XkXXXW.Q.%X|.Y # ",
"N.M.M.i._.I.Q.W.F H.E.XX^ 0 5XeXc.c.M.^.M.B.wXqXx.x.l.Q.@.& 7.XXv.c._.!./.i.!.J.P.Z.> ; 8.>XK.k.F.J.].Z.a.d./.B.c.B.B.z.b.pX@.8 ",
"I.I.d.^.v.^.l.b.%XT.M.E.5.> lXz.i.z.T.E.D.D.D.!.z.p.y._.R.: jXz.U.U.!.U.v.f.f.v.X.oX;X$ *X(.(.J.E.E.E.E.E.E.E.E.d.U.c.i.p.`.'.m ",
"E.E.f.!.f.U.f.^.E.p.p.c.#.< xXC.v.U.!.(.(.(.(.(.U.!.D.#X[.: kXd.f.f.f.f.f.f.f.v.C.z.] 9 qXb.l.z.z.z.z.z.z.z.z.z.p.v.z.z.N.!...q ",
"D.D.D.).K.K.f.U.#X(.!. X5.4 @XU.f.D.S.D.D.!.U.f.U.!.).J.OX> MXT.E.J.J.J.J.J.(.#Xh.!.&.& G ` I.U.D.D.D.D.D.D.K.D.D.D.J.E.(.F.I y ",
"p.f.K.(.!.!.K.j.E.!.!.E.5.F @XE.!.!.!.!.!.!.M.v.^.v.~.d.R.$ Y.( E.U.U.U.E.E.U.D.P.OXq.g 3 '.%X(.J.J.J.J.J.J.J.J.(.(.D.U.(.H.W g ",
"M.v.f.d.D.U.!.v.z.b.i./ D $ ^ _ d.D.U.U.c.d.c.c.S.L Z.K 7., *.Y.z.z.z.x.x.z.l.i.E.F ; n { E.g.u.b.b.b.b.v.v.b.b.N.c.( ' ( c.' 8 ",
"U.I.E.R. XR.U.d.|.[.O.U 3 # l ,.X.S.E.E.I.I.R.W.>.f P z >.= R O.H.H.|.|.|.|.#...T % X - I  X(.(.R.R.R.R.R.R.R.R.F.3.W h U 3.,.g ",
", , w $ , : 9 < , 2 : 1 = * a -.> > 4 < < 3 3 3 -.a f # # * $ > h 2 2 2 2 2 2 : : = i . # 2 l :.< < < < < < < < 2 1 * * = 2 1 * ",
"2.1.1.= i q 8.vX<X3XY.pXVX*.G < l l h h g g y t X ; w & e sX.XgXpX6XQ.Q.6X6X6XQ.jXY.sXsX+X9   + iXiXiXiXiXiXiXiX3X5Xw.iX6X3X5X5X",
").p.U.T F qXv._.!.T.T.T.!.U.D.d.D.Z.X.].Z.A 4 ; XXI.y.f.E.U.T.uXb.b.b.T.T.b.b.b.!./.m.1Xc.o.: @XT.z.^.wX`.^.M.v.v.v.v.v.b.b.b.b.",
"L.b.Q.5.F gXc.D.E.U.U.U.U.U.U.U.f.&XE.) ) E.8.6 G o.U.f.U.E.U.b.c.c.U.U.U.U.c.c.#XU.i.c.I.XX< XX_.c.c.^.T.c.c.f.!.!.!.!.!.!.~.~.",
"J.^.I.5.9 gXv.E.D.U.c.f.f.U.E.E.M.^.U.c.T._.7.5 *.XX~.f.U.E.U.z.c.U.U.D.D.U.U.c. X) ) ..@.+X8 5X_.d.d.U.f.d.D.f.D.K.K.D.D.D.K.K.",
"K.B.c.+.S gXb.D.!.!.M.M.!.(.!.D.~.p.y.^./.c._ 8 dX_.j.j.!.U.f.M.!.!.!.!.!.!.!.!.v.i.E.X.U 2., pX!.f.U.(.U.D.!.!.U.U.U.U.U.U.I.I.",
"L.M.d.+.H wXz.s.p.j.j.p.M.M.f.y.K.).!.v.p.v.#., H a.g.k.~.!.f.g.j.j.j.j.j.j.j.j.C.M.xX#.I Q : .X!.K.~.).f.f.(.(.v.v.v.v.v.v.v.c.",
"].) D I w I.^.(.S.D.!.f.!.!.D.a.J H. XE.S.S.O.= : H.&X!.D.(.(.!.D.D.U.U.U.U.E.D.v.d.I.} h l : W E.D.J.S.K K F.J.P.!.M.M.N.j.j.K.",
",.w & O t e &.oX+.R.|.R.R.|.|.5.1 m E 7.+.F g O n 8.XX) K #.&.#.|.|.R.R.R.R.|.|.T G w q i t - = O.T U U > 4 I I ].].J.J.S.F.F.F.",
"p X x @ =.. V k # q M w 8 w M B s u u n & # d @ + n w , w M w q w w 9 9 9 9 w w j k * + + + s X m 3 ; ; = i i * n n r r r 6 6 ; "
};
